@startuml all


scale 4
skinparam DefaultFontName B Nazanin
skinparam ArrowMessageAlignment right


class "اشتراک" as subscription {
    قیمت
}

class "کانال" as chanel {
    مشاهده اشتراک‌ها()
    خرید اشتراک()
}

class "عضو کانال" as member {
    افزودن اشتراک(اشتراک)
}

class "کاربر" as user {
    گرفتن اعتبار()
    کاهش اعتبار(مقدار)
}

class "صاحب کانال" as owner {
    انتخاب مدیر(عضو کانال)
}

class "کانال" as chanel {
}

class "عضو کانال" as member {
    ارتقا به تولیدکننده(تولیدکننده)
}

class "مدیر کانال" as manager {
}

class "کاربر" as user {
    درخواست ایجاد کانال(اطلاعات کانال)
    افزودن عضویت(عضو کانال)
}

class "کانال" as chanel {
    گرفتن نام کانال()
}

class "عضو کانال" as member {
    ارتقا به تولیدکننده(تولیدکننده محتوا)
}

class "صاحب کانال" as owner {
}


abstract "تولیدکننده محتوا" as producer {
}

class "محتوا" as content {
    مشخصات محتوا
}

class "کانال" as chanel {
    ایجاد محتوا(مشخصات محتوا)
    انتشار محتوا(محتوا)
}


abstract "تولیدکننده محتوا" as producer {
    درصد سود
    واریز سود(مقدار سود)
}

class "کانال" as chanel {
    سود ماه جاری
    محاسبه سود()
    واریز سود()
    ثبت گزارش واریز()
}

class "کاربر" as user {
    اعتبار
    واریز سود(مقدار سود)
}

class "عضو کانال" as member {
    گرفتن درصد سود()
    واریز سود(مقدار سود)
}

class "کاربر" as user {
    افزودن عضویت(عضو کانال)
}

class "کانال" as chanel {
    افزودن عضو(کاربر)
}

class "عضو کانال" as member {
}

class "کانال" as chanel {
    (عضو کانال)حذف عضو
}

class "عضو کانال" as member {
    ()خروج
}

class "کاربر" as user {
    (عضو کانال)حذف عضویت
}


class "کاربر" as user {
    ورود به سامانه()
    وارد کردن اطلاعات کاربری()
}

class "ایمیل" as address {
    آدرس ایمیل
}

class "تلفن" as phone {
    کد کشور
    شماره تلفن
}

class "کاربر" as user {
    خروج()
}

abstract "تولیدکننده محتوا" as producer {
}

class "محتوا" as content {
    گرفتن مشخصات()
    ارتقای سطح دسترسی()
}

class "کانال" as chanel {
    مشاهده محتویات()
    انتخاب محتوا(مشخصات محتوا)
}

class "کاربر" as user {
}

class "کانال" as chanel {
    گرفتن اطلاعات کانال()
    پیدا کردن کانال(اطلاعات کانال)
}

class "محتوا" as content {
    گرفتن مشخصات()
    گرفتن سطح دسترسی()
    گرفتن خلاصه()
}

class "کانال" as chanel {
    مشاهده محتویات()
    انتخاب محتوا(مشخصات محتوا)
}

class "عضو کانال" as member {
    گرفتن سطح دسترسی()
}

class "اشتراک" as subscription{
}

class "صاحب کانال" as owner {
}

class "کانال" as chanel {
    تعیین سود مدیر(عضو کانال، مقدار سود)
}

class "عضو کانال" as member {
    تعیین سود(مقدار سود)
}

class "مدیر" as manager {
    مقدار سود
    تعیین سود(مقدار سود)
}

class "صاحب کانال" as owner {
}

class "کانال" as chanel {
    انواع اشتراک‌ها
    تعریف حق عضویت()
    قیمت‌گذاری(نوع اشتراک)
}

class "کاربر" as user {
    به‌روزرسانی اشتراک‌ها()
}

class "عضو کانال" as member {
    کاهش روزانه()
}

class "اشتراک" as subscription {
    زمان باقیمانده
    کاهش زمان باقیمانده()
}


member "1" -- "         0..1" producer

producer "+" -- "1" chanel

chanel "1" o-- "+" member

user "*" -- "*" chanel

member "*" -- "1" user

producer "          1" -- "             *" content
content "*" --o "1" chanel

member "        1" -- "          0..1" manager
chanel "1" -- "*" manager

member "1" -- "0..1" owner
owner "1" -- "1" chanel
user "1" -right- "1" phone
user "1" -left- "1" address

member "1" *-- "*" subscription
subscription "*" - "1" chanel
subscription "*" --* "1" member


@enduml